<?xml version="1.0" encoding="UTF-8" standalone="no"?>
<!-- Created with Inkscape (http://www.inkscape.org/) -->

<svg
   xmlns:dc="http://purl.org/dc/elements/1.1/"
   xmlns:cc="http://creativecommons.org/ns#"
   xmlns:rdf="http://www.w3.org/1999/02/22-rdf-syntax-ns#"
   xmlns:svg="http://www.w3.org/2000/svg"
   xmlns="http://www.w3.org/2000/svg"
   xmlns:xlink="http://www.w3.org/1999/xlink"
   version="1.1"
   width="744.09448"
   height="1052.3622"
   id="svg2">
  <defs
     id="defs4">
    <linearGradient
       id="linearGradient3916">
      <stop
         id="stop3918"
         style="stop-color:#000000;stop-opacity:1"
         offset="0" />
      <stop
         id="stop3924"
         style="stop-color:#000000;stop-opacity:1"
         offset="0.82608694" />
      <stop
         id="stop3920"
         style="stop-color:#282828;stop-opacity:1"
         offset="1" />
    </linearGradient>
    <radialGradient
       cx="383.85797"
       cy="484.65646"
       r="93.93911"
       fx="383.85797"
       fy="484.65646"
       id="radialGradient3922"
       xlink:href="#linearGradient3916"
       gradientUnits="userSpaceOnUse"
       gradientTransform="matrix(1,0,0,1.3817411,0,-185.01327)" />
  </defs>
  <metadata
     id="metadata7">
    <rdf:RDF>
      <cc:Work
         rdf:about="">
        <dc:format>image/svg+xml</dc:format>
        <dc:type
           rdf:resource="http://purl.org/dc/dcmitype/StillImage" />
        <dc:title></dc:title>
      </cc:Work>
    </rdf:RDF>
  </metadata>
  <g
     id="layer2">
    <path
       d="m 314.66251,414.95593 -20.20305,70.71067 -4.04061,35.35534 12.12183,50.50763 10.10153,16.16245 29.29442,24.24365 40.4061,2.02031 c 0,0 48.48732,-12.12183 58.58885,-28.28427 10.10153,-16.16244 18.18275,-13.13199 19.1929,-29.29443 1.01015,-16.16244 7.07107,-37.37564 7.07107,-37.37564 l 5.05076,-4.04061 2.02031,-9.09137 3.03045,-30.30458 -11.11168,-56.56854 -9.09137,-32.32488 -17.17259,-17.1726 -23.23351,-14.14213 -38.3858,1.01015 -22.22335,0 -18.18275,3.03046 -18.18275,33.33503 z"
       id="path3085"
       style="fill:url(#radialGradient3922);fill-opacity:1;stroke:#000000;stroke-width:1px;stroke-linecap:butt;stroke-linejoin:miter;stroke-opacity:1;display:inline" />
    <path
       d="m 341.43156,399.80364 7.07107,-9.09137 19.1929,-2.02031 12.12183,-1.01015 18.18274,0 18.18275,4.04061 11.11168,7.07107 z"
       id="path3886"
       style="fill:#ffffff;fill-opacity:1;stroke:#000000;stroke-width:1px;stroke-linecap:butt;stroke-linejoin:miter;stroke-opacity:1" />
    <path
       d="m 334.36049,406.87471 17.1726,6.06091 35.35533,4.04061 24.24367,-2.0203 15.15228,-5.05077 7.07107,-7.07106 -83.84266,-1.01016 z"
       id="path3888"
       style="fill:#ffffff;fill-opacity:1;fill-rule:nonzero;stroke:#000000;stroke-width:1px;stroke-linecap:butt;stroke-linejoin:miter;stroke-opacity:1" />
    <path
       d="m 428.30468,554.35698 -9.09137,1.01015 -20.20305,-11.11168 -16.16245,-23.23351 -1.01015,-39.39595 7.07107,-20.20305 8.08122,-13.13198 0,-7.07107 -11.11168,-8.08122 -25.25381,1.01015 -7.07107,7.07107 -1.01015,11.11168 5.05076,11.11168 4.04061,21.2132 -1.01015,38.3858"
       id="path3906"
       style="fill:none;stroke:#ffffff;stroke-width:2.4000001;stroke-linecap:butt;stroke-linejoin:miter;stroke-miterlimit:4;stroke-opacity:1;stroke-dasharray:none" />
    <path
       d="m 338.4011,533.14377 12.12183,0 3.03046,4.04061 -7.07107,5.05077 -12.12183,4.04061 -8.08122,-2.02031 -5.05076,-7.07107 z"
       id="path3908"
       style="fill:#ffffff;fill-opacity:1;stroke:#000000;stroke-width:1px;stroke-linecap:butt;stroke-linejoin:miter;stroke-opacity:1" />
    <path
       d="m 421.23361,530.11332 6.06092,7.07106 12.12183,0 9.09137,-5.05076 -5.05076,-4.04061 -12.12183,-3.03046 z"
       id="path3910"
       style="fill:#ffffff;fill-opacity:1;stroke:#000000;stroke-width:1px;stroke-linecap:butt;stroke-linejoin:miter;stroke-opacity:1" />
    <path
       d="m 362.64476,439.19959 -4.04061,7.07107 7.07107,2.0203 7.07107,-4.04061 z"
       id="path3912"
       style="fill:#ffffff;fill-opacity:1;stroke:#000000;stroke-width:1px;stroke-linecap:butt;stroke-linejoin:miter;stroke-opacity:1" />
    <path
       d="m 384.86812,441.21989 -2.02031,7.07107 7.07107,0 0,-7.07107 z"
       id="path3914"
       style="fill:#ffffff;fill-opacity:1;stroke:#000000;stroke-width:1px;stroke-linecap:butt;stroke-linejoin:miter;stroke-opacity:1" />
  </g>
</svg>
